<svg width="1212" height="794" viewBox="0 0 1212 794" fill="none" xmlns="http://www.w3.org/2000/svg">
<g clip-path="url(#clip0_111_106)">
<mask id="mask0_111_106" style="mask-type:luminance" maskUnits="userSpaceOnUse" x="0" y="0" width="1212" height="794">
<path d="M1212 0H0V794H1212V0Z" fill="white"/>
</mask>
<g mask="url(#mask0_111_106)">
<path d="M0 0H1212V794H0V0Z" fill="#F8C249"/>
<path fill-rule="evenodd" clip-rule="evenodd" d="M1199.46 8.35789H12.5379V785.642H1199.46V8.35789ZM0 0V794H1212V0H0Z" fill="black"/>
<path d="M480.621 493.116H162.993V547.442H480.621V493.116Z" fill="black"/>
<path d="M890.193 493.116H543.311V547.442H890.193V493.116Z" fill="black"/>
<path d="M480.621 426.253H162.993V480.579H480.621V426.253Z" fill="black"/>
<path d="M480.621 91.9368H162.993V146.263H480.621V91.9368Z" fill="black"/>
<path d="M480.621 25.0737H162.993V79.4H480.621V25.0737Z" fill="black"/>
<path d="M401.214 359.389H242.4V413.716H401.214V359.389Z" fill="black"/>
<path d="M401.214 292.526H242.4V346.853H401.214V292.526Z" fill="black"/>
<path d="M401.214 225.663H242.4V279.989H401.214V225.663Z" fill="black"/>
<path d="M401.214 158.8H242.4V213.126H401.214V158.8Z" fill="black"/>
<path d="M890.193 426.253H543.311V480.579H890.193V426.253Z" fill="black"/>
<path d="M781.531 359.389H622.717V413.716H781.531V359.389Z" fill="black"/>
<path d="M781.531 158.8H622.717V213.126H781.531V158.8Z" fill="black"/>
<path d="M1170.21 91.9368H543.311V146.263H1170.21V91.9368Z" fill="black"/>
<path d="M1032.29 158.8H1170.21V213.126H1049.01L1032.29 158.8Z" fill="black"/>
<path d="M1170.21 25.0737H543.311V79.4H1170.21V25.0737Z" fill="black"/>
<path d="M931.986 292.526H622.717V346.853H931.986V292.526Z" fill="black"/>
<path d="M931.986 225.663H622.717V279.989H931.986V225.663Z" fill="black"/>
<path d="M1170.21 25.0737H162.993V33.4316H1170.21V25.0737Z" fill="black"/>
<path d="M1170.21 91.9368H162.993V100.295H1170.21V91.9368Z" fill="black"/>
<path d="M1170.21 158.8H162.993V167.158H1170.21V158.8Z" fill="black"/>
<path d="M1170.21 225.663H162.993V234.021H1170.21V225.663Z" fill="black"/>
<path d="M1170.21 292.526H162.993V300.884H1170.21V292.526Z" fill="black"/>
<path d="M1170.21 359.389H162.993V367.747H1170.21V359.389Z" fill="black"/>
<path d="M1170.21 426.253H162.993V434.611H1170.21V426.253Z" fill="black"/>
<path d="M1170.21 493.116H162.993V501.474H1170.21V493.116Z" fill="black"/>
<path d="M1170.21 559.979H162.993V568.337H1170.21V559.979Z" fill="black"/>
<path d="M963.013 273.787C964.004 273.787 964.907 274.148 965.596 274.746C966.44 275.471 966.971 276.545 966.971 277.742V292.434C966.971 294.619 965.199 296.39 963.013 296.39C961.634 296.39 960.422 295.683 959.712 294.613C959.298 293.989 959.06 293.24 959.06 292.434V279.038V277.742C959.06 275.558 960.832 273.787 963.013 273.787Z" fill="#F8C249"/>
<path d="M973.169 273.787C975.355 273.787 977.127 275.558 977.127 277.742V292.434C977.127 294.619 975.355 296.39 973.169 296.39C970.987 296.39 969.215 294.619 969.215 292.434V277.742C969.215 275.558 970.987 273.787 973.169 273.787Z" fill="#F8C249"/>
<path d="M983.325 273.787C985.51 273.787 987.283 275.558 987.283 277.742V292.434C987.283 294.619 985.51 296.39 983.325 296.39C981.143 296.39 979.371 294.619 979.371 292.434V277.742C979.371 275.558 981.143 273.787 983.325 273.787Z" fill="#F8C249"/>
<path d="M993.48 273.787C995.666 273.787 997.438 275.558 997.438 277.742V280.561V292.434C997.438 294.619 995.666 296.39 993.48 296.39C991.295 296.39 989.527 294.619 989.527 292.434V277.742C989.527 275.558 991.295 273.787 993.48 273.787Z" fill="#F8C249"/>
<path d="M1149.06 276.648C1150.6 278.198 1150.59 280.703 1149.04 282.241L1138.6 292.587C1137.05 294.125 1134.55 294.115 1133.01 292.564C1131.47 291.013 1131.48 288.508 1133.03 286.97C1133.03 286.97 1139.39 280.664 1143.47 276.624C1145.02 275.086 1147.52 275.096 1149.06 276.648Z" fill="#F8C249"/>
<path d="M1156.21 283.857C1157.75 285.409 1157.74 287.913 1156.19 289.451L1145.76 299.797C1144.2 301.335 1141.7 301.325 1140.16 299.774C1138.62 298.223 1138.63 295.718 1140.18 294.18L1150.62 283.834C1152.17 282.296 1154.67 282.306 1156.21 283.857Z" fill="#F8C249"/>
<path d="M1163.36 291.067C1164.9 292.619 1164.89 295.123 1163.34 296.661L1152.91 307.007C1151.35 308.545 1148.85 308.535 1147.31 306.984C1145.77 305.433 1145.78 302.929 1147.34 301.39L1157.77 291.044C1159.32 289.506 1161.82 289.517 1163.36 291.067Z" fill="#F8C249"/>
<path d="M1170.52 298.278C1172.05 299.829 1172.04 302.333 1170.49 303.872C1170.49 303.872 1164.13 310.177 1160.06 314.217C1158.51 315.755 1156 315.745 1154.46 314.194C1152.93 312.643 1152.93 310.138 1154.49 308.6L1164.92 298.254C1166.47 296.716 1168.97 296.727 1170.52 298.278Z" fill="#F8C249"/>
<path d="M1142.85 434.982C1139.66 434.982 1137.06 432.391 1137.06 429.195C1137.06 425.998 1139.66 423.407 1142.85 423.407C1146.05 423.407 1148.64 425.998 1148.64 429.195C1148.64 432.391 1146.05 434.982 1142.85 434.982Z" fill="#F8C249"/>
<path d="M1129.73 434.982C1126.53 434.982 1123.93 432.392 1123.93 429.195C1123.93 425.998 1126.53 423.403 1129.73 423.403C1132.92 423.403 1135.51 425.998 1135.51 429.195C1135.51 432.392 1132.92 434.982 1129.73 434.982Z" fill="#F8C249"/>
<path d="M1116.59 434.982C1113.4 434.982 1110.81 432.392 1110.81 429.195C1110.81 425.998 1113.4 423.403 1116.59 423.403C1119.79 423.403 1122.38 425.998 1122.38 429.195C1122.38 432.392 1119.79 434.982 1116.59 434.982Z" fill="#F8C249"/>
<path d="M1103.47 434.982C1101.65 434.982 1100.03 434.147 1098.97 432.839C1098.16 431.844 1097.68 430.574 1097.68 429.195C1097.68 425.998 1100.27 423.403 1103.47 423.403C1106.66 423.403 1109.26 425.998 1109.26 429.195C1109.26 432.392 1106.66 434.982 1103.47 434.982Z" fill="#F8C249"/>
<path d="M958.379 265.848C954.784 265.848 951.867 262.934 951.867 259.338C951.867 255.742 954.784 252.826 958.379 252.826C961.977 252.826 964.89 255.742 964.89 259.338C964.89 262.934 961.977 265.848 958.379 265.848Z" fill="#F8C249"/>
<path d="M964.89 253.789C961.296 253.789 958.378 250.873 958.378 247.278C958.378 243.682 961.296 240.766 964.89 240.766C968.488 240.766 971.401 243.682 971.401 247.278C971.401 250.873 968.488 253.789 964.89 253.789Z" fill="#F8C249"/>
<path d="M977.917 247.278C974.319 247.278 971.401 244.362 971.401 240.766C971.401 237.17 974.319 234.255 977.917 234.255C981.511 234.255 984.428 237.17 984.428 240.766C984.428 244.362 981.511 247.278 977.917 247.278Z" fill="#F8C249"/>
<path d="M992.127 247.278C988.532 247.278 985.615 244.362 985.615 240.766C985.615 237.171 988.532 234.255 992.127 234.255C995.725 234.255 998.638 237.171 998.638 240.766C998.638 244.362 995.725 247.278 992.127 247.278Z" fill="#F8C249"/>
<path d="M1005.15 253.789C1001.55 253.789 998.638 250.873 998.638 247.278C998.638 243.682 1001.55 240.766 1005.15 240.766C1008.75 240.766 1011.66 243.682 1011.66 247.278C1011.66 250.873 1008.75 253.789 1005.15 253.789Z" fill="#F8C249"/>
<path d="M1011.66 265.848C1008.07 265.848 1005.15 262.934 1005.15 259.338C1005.15 255.742 1008.07 252.826 1011.66 252.826C1015.26 252.826 1018.17 255.742 1018.17 259.338C1018.17 262.934 1015.26 265.848 1011.66 265.848Z" fill="#F8C249"/>
<path d="M1010.19 279.05C1009.19 279.05 1007.4 278.426 1007.4 278.426V275.076C1007.4 275.076 1005.44 275.076 1004.18 275.076C1003.84 274.247 1003.67 273.439 1003.67 272.539C1003.67 268.943 1006.59 266.028 1010.19 266.028C1013.78 266.028 1016.7 268.943 1016.7 272.539C1016.7 276.135 1013.78 279.05 1010.19 279.05Z" fill="#F8C249"/>
<path d="M1046.11 451.092C1046.11 454.289 1043.52 456.88 1040.32 456.88C1037.13 456.88 1034.53 454.289 1034.53 451.092C1034.53 447.895 1037.13 445.304 1040.32 445.304C1043.52 445.304 1046.11 447.895 1046.11 451.092Z" fill="#F8C249"/>
<path d="M1046.11 462.668C1046.11 465.865 1043.52 468.456 1040.32 468.456C1037.13 468.456 1034.53 465.865 1034.53 462.668C1034.53 459.471 1037.13 456.88 1040.32 456.88C1043.52 456.88 1046.11 459.471 1046.11 462.668Z" fill="#F8C249"/>
<path d="M1046.11 474.244C1046.11 477.441 1043.52 480.032 1040.32 480.032C1037.13 480.032 1034.53 477.441 1034.53 474.244C1034.53 471.047 1037.13 468.456 1040.32 468.456C1043.52 468.456 1046.11 471.047 1046.11 474.244Z" fill="#F8C249"/>
<path d="M1046.11 485.823C1046.11 489.02 1043.52 491.611 1040.32 491.611C1037.13 491.611 1034.53 489.02 1034.53 485.823C1034.53 482.627 1037.13 480.031 1040.32 480.031C1043.52 480.031 1046.11 482.627 1046.11 485.823Z" fill="#F8C249"/>
<path d="M1046.11 497.399C1046.11 500.596 1043.52 503.187 1040.32 503.187C1037.13 503.187 1034.53 500.596 1034.53 497.399C1034.53 494.202 1037.13 491.611 1040.32 491.611C1043.52 491.611 1046.11 494.202 1046.11 497.399Z" fill="#F8C249"/>
<path d="M1082.03 451.092C1082.03 454.289 1079.44 456.88 1076.24 456.88C1073.05 456.88 1070.46 454.289 1070.46 451.092C1070.46 447.895 1073.05 445.304 1076.24 445.304C1079.44 445.304 1082.03 447.895 1082.03 451.092Z" fill="#F8C249"/>
<path d="M1082.03 462.668C1082.03 465.865 1079.44 468.456 1076.24 468.456C1073.05 468.456 1070.46 465.865 1070.46 462.668C1070.46 459.471 1073.05 456.88 1076.24 456.88C1079.44 456.88 1082.03 459.471 1082.03 462.668Z" fill="#F8C249"/>
<path d="M1082.03 474.244C1082.03 477.441 1079.44 480.032 1076.24 480.032C1073.05 480.032 1070.46 477.441 1070.46 474.244C1070.46 471.047 1073.05 468.456 1076.24 468.456C1079.44 468.456 1082.03 471.047 1082.03 474.244Z" fill="#F8C249"/>
<path d="M1082.03 485.823C1082.03 489.02 1079.44 491.611 1076.24 491.611C1073.05 491.611 1070.46 489.02 1070.46 485.823C1070.46 482.627 1073.05 480.031 1076.24 480.031C1079.44 480.031 1082.03 482.627 1082.03 485.823Z" fill="#F8C249"/>
<path d="M1082.03 497.399C1082.03 500.596 1079.44 503.187 1076.24 503.187C1073.05 503.187 1070.46 500.596 1070.46 497.399C1070.46 494.202 1073.05 491.611 1076.24 491.611C1079.44 491.611 1082.03 494.202 1082.03 497.399Z" fill="#F8C249"/>
<path d="M1032.66 500.763C1006.94 485.824 983.032 509.443 957.609 494.307C939.488 483.521 940.37 447.883 967.903 444.168C970.31 443.842 972.922 443.762 975.743 443.963C977.633 444.097 979.618 444.356 981.695 444.757C981.695 444.757 982.038 444.82 982.627 444.941C984.675 445.367 989.673 446.5 993.397 448.117C995.528 449.049 997.994 450.073 1000.61 451.092C1005.25 452.906 1010.37 454.707 1014.9 455.923C1018.34 456.851 1021.44 457.436 1023.74 457.436C1034.58 457.436 1032.59 445.38 1040.03 445.242C1047.46 445.108 1058.52 453.767 1058.52 476.693C1058.52 453.767 1069.03 445.108 1076.46 445.242C1083.89 445.38 1081.91 457.436 1092.74 457.436C1099.76 457.436 1106.31 457.436 1115.52 449.901C1115.52 449.901 1119.27 451.928 1130.98 451.481C1142.82 451.021 1149.62 443.445 1149.62 443.445C1175.81 448.146 1176.69 483.701 1158.87 494.307C1133.45 509.443 1109.55 485.824 1083.82 500.763C1071.75 507.767 1058.52 499.618 1058.52 476.693C1058.52 499.618 1044.73 507.767 1032.66 500.763Z" fill="#F8C249"/>
<path d="M952.883 503.563C956.314 517.943 963.787 534.905 982.138 534.905H1032.29C1049.25 534.905 1053.19 534.905 1058.12 541.174C1063.63 534.905 1068.29 534.905 1084.53 534.905H1138.86C1157.39 534.905 1161.79 516.777 1163.34 503.705C1154.89 508.528 1152.65 509.627 1105.34 508.528C1079.11 507.913 1068.29 508.528 1057.86 523.894C1047.47 508.528 1035.88 508.528 1011.35 508.528C963.285 508.528 958.512 508.528 952.883 503.563Z" fill="#F8C249"/>
<path d="M974.398 431.506C974.398 429.32 976.166 427.548 978.352 427.548H993.046C995.232 427.548 997 429.32 997 431.506C997 433.691 995.232 435.459 993.046 435.459H978.352C976.166 435.459 974.398 433.691 974.398 431.506Z" fill="#F8C249"/>
<path d="M974.398 422.023C974.398 419.838 976.166 418.066 978.352 418.066H993.046C995.232 418.066 997 419.838 997 422.023C997 424.209 995.232 425.977 993.046 425.977H978.352C976.166 425.977 974.398 424.209 974.398 422.023Z" fill="#F8C249"/>
<path d="M974.398 412.541C974.398 410.357 976.166 408.586 978.352 408.586H979.961H993.046C993.485 408.586 993.907 408.658 994.304 408.79C995.871 409.315 997 410.796 997 412.541C997 414.726 995.232 416.497 993.046 416.497H978.352C976.166 416.497 974.398 414.726 974.398 412.541Z" fill="#F8C249"/>
<path d="M1033.69 295.943C1033.69 295.943 1022.23 295.943 1014.9 295.943C1014.9 264.974 1040.7 253.244 1052.12 253.244L1058.51 243.366L1064.63 253.244C1076.05 253.244 1101.86 264.974 1101.86 295.943H1083.22H1067.5C1062.77 295.943 1058.51 299.956 1058.51 304.754C1058.51 299.956 1054.23 295.943 1049.8 295.943H1033.69Z" fill="#F8C249"/>
<path d="M963.536 437.385L959.762 423.377L963.536 370.044L968.651 362.77L981.854 349.302L979.969 321.556L963.536 307.549L958.943 295.685H1114.92L1118.44 291.656L1142.14 283.575L1149.42 303.508L1115.74 352.265V437.385H963.536Z" fill="#F8C249"/>
<path fill-rule="evenodd" clip-rule="evenodd" d="M1117.07 230.938C1122.3 237.005 1124.03 242.366 1123.81 246.932C1123.57 252.11 1120.84 255.859 1118.8 258.051C1118.5 258.379 1118.07 258.572 1117.63 258.585C1117.18 258.599 1116.75 258.433 1116.42 258.124L1107.41 249.527L1098.9 258.034L1123.09 279.82C1125.36 277.12 1127.99 274.587 1130.67 272.182C1130.04 271.5 1129.2 270.608 1128.2 269.607C1127.54 268.954 1127.54 267.896 1128.2 267.243C1134 261.442 1140.46 260.587 1146.09 261.937C1149.87 262.843 1153.26 264.729 1155.87 266.71C1155.58 263.89 1154.97 260.368 1153.89 256.698C1152.23 251.021 1149.47 245.155 1145.16 240.957C1140.6 236.532 1134.6 233.856 1128.73 232.395C1124.5 231.341 1120.4 230.936 1117.07 230.938ZM1133.18 269.973C1133.97 269.285 1134.77 268.606 1135.55 267.934L1135.62 267.872C1136.78 266.878 1137.92 265.903 1139.02 264.936C1136.61 265.361 1134.16 266.45 1131.78 268.482C1132.31 269.04 1132.79 269.544 1133.18 269.973ZM1141.03 264.728C1142.49 264.681 1143.93 264.856 1145.31 265.188C1150.06 266.327 1154.22 269.333 1156.57 271.759C1157.04 272.248 1157.76 272.401 1158.4 272.146C1159.03 271.89 1159.44 271.278 1159.44 270.596C1159.44 267.363 1158.86 261.733 1157.1 255.756C1155.35 249.789 1152.38 243.314 1147.48 238.559C1142.38 233.596 1135.78 230.703 1129.54 229.15C1123.3 227.598 1117.29 227.351 1113.22 227.787C1112.58 227.856 1112.03 228.286 1111.82 228.893C1111.61 229.5 1111.76 230.176 1112.22 230.631C1118.96 237.375 1120.66 242.778 1120.47 246.775C1120.32 250.008 1118.92 252.591 1117.45 254.485L1108.54 245.98C1107.88 245.354 1106.84 245.366 1106.2 246.008L1095.29 256.915C1094.97 257.239 1094.79 257.682 1094.8 258.14C1094.82 258.599 1095.01 259.032 1095.36 259.339L1121.02 282.463C1118.36 286.181 1116.43 290.286 1116 294.872C1113.76 294.604 1110.81 294.461 1108.26 294.381C1106.53 294.326 1104.93 294.298 1103.77 294.285C1103.68 294.284 1103.59 294.283 1103.5 294.282C1103.06 279.163 1096.55 268.563 1088.62 261.715C1080.88 255.029 1071.75 251.891 1065.58 251.596L1059.92 242.485C1059.62 241.999 1059.09 241.7 1058.52 241.695C1057.95 241.689 1057.41 241.978 1057.1 242.459L1051.2 251.594C1045.02 251.884 1035.88 255.021 1028.13 261.715C1024.31 265.018 1020.81 269.193 1018.17 274.327C1018.3 273.752 1018.36 273.153 1018.36 272.539C1018.36 270.133 1017.33 267.968 1015.67 266.471C1018.16 265.068 1019.84 262.399 1019.84 259.338C1019.84 255.048 1016.54 251.529 1012.34 251.183C1012.97 250.022 1013.33 248.692 1013.33 247.277C1013.33 242.758 1009.67 239.095 1005.15 239.095C1003.34 239.095 1001.66 239.683 1000.31 240.679C1000.26 236.2 996.615 232.584 992.126 232.584C989.084 232.584 986.43 234.243 985.022 236.706C983.609 234.243 980.955 232.584 977.912 232.584C973.424 232.584 969.78 236.2 969.729 240.679C968.375 239.683 966.704 239.095 964.89 239.095C960.372 239.095 956.707 242.758 956.707 247.277C956.707 248.692 957.066 250.022 957.697 251.183C953.497 251.529 950.195 255.048 950.195 259.338C950.195 262.302 951.775 264.899 954.132 266.334C952.389 267.835 951.286 270.058 951.286 272.539C951.286 276.339 953.877 279.533 957.388 280.454V292.434C957.388 293.386 957.626 294.286 958.044 295.075C958.094 298.694 958.78 302.562 960.928 306.344C962.997 309.98 966.353 313.421 971.577 316.474C969.169 318.322 967 319.505 965.17 320.261C963.043 321.14 961.342 321.454 960.205 321.556C959.636 321.608 959.21 321.605 958.938 321.593C958.801 321.587 958.704 321.578 958.65 321.572L958.6 321.566C957.981 321.469 957.359 321.725 956.991 322.232C956.619 322.742 956.565 323.419 956.853 323.981L958.341 323.217C956.853 323.981 956.853 323.981 956.853 323.981L956.857 323.987L956.861 323.998L956.882 324.036L956.953 324.173C957.016 324.292 957.112 324.463 957.233 324.684C957.48 325.124 957.848 325.759 958.332 326.553C959.306 328.141 960.765 330.369 962.721 332.954C966.344 337.743 971.694 343.781 978.84 349.242C963.481 362.571 954.099 381.133 954.099 396.236C954.099 409.183 955.9 420.13 958.358 428.48C960.234 434.857 962.524 439.847 964.773 443.031C952.034 445.931 945.352 455.802 943.977 466.371C942.514 477.587 946.99 489.931 956.753 495.744C970.018 503.643 982.911 501.403 995.19 499.276L995.307 499.255C1007.74 497.098 1019.55 495.08 1031.82 502.209C1034.07 503.513 1036.4 504.345 1038.72 504.687C1039.24 504.8 1039.77 504.859 1040.32 504.859C1040.39 504.859 1040.47 504.859 1040.54 504.854C1044.34 504.997 1048.02 503.806 1051.17 501.248C1054.39 498.632 1056.93 494.683 1058.49 489.493C1059.99 494.67 1062.45 498.615 1065.58 501.231C1068.65 503.806 1072.26 504.997 1076.01 504.854C1076.09 504.859 1076.16 504.859 1076.24 504.859C1076.82 504.859 1077.38 504.792 1077.92 504.666C1080.18 504.315 1082.45 503.492 1084.66 502.209C1096.93 495.08 1108.75 497.098 1121.18 499.255L1121.29 499.276C1133.57 501.403 1146.46 503.643 1159.73 495.744C1169.35 490.015 1173.73 477.733 1172.41 466.467C1171.17 455.881 1164.85 445.798 1152.71 442.434C1154.96 439.354 1157.25 434.519 1159.11 428.259C1161.53 420.089 1163.31 409.277 1163.31 396.236C1163.31 381.059 1153.81 362.404 1138.3 349.072C1145.46 343.615 1150.78 337.618 1154.37 332.867C1156.31 330.303 1157.75 328.096 1158.71 326.522C1159.19 325.736 1159.55 325.107 1159.78 324.671C1159.9 324.453 1160 324.283 1160.06 324.165L1160.13 324.028L1160.15 323.991L1160.16 323.98L1160.16 323.975C1160.16 323.975 1160.16 323.974 1158.67 323.217L1160.16 323.975C1160.44 323.412 1160.39 322.737 1160.02 322.229C1159.65 321.721 1159.02 321.466 1158.4 321.568L1158.41 321.567L1158.41 321.566C1158.41 321.566 1158.41 321.567 1158.4 321.568C1158.38 321.571 1158.34 321.575 1158.28 321.58C1158.17 321.589 1157.98 321.6 1157.72 321.6C1157.21 321.6 1156.42 321.553 1155.39 321.353C1154.41 321.162 1153.22 320.83 1151.84 320.262C1154.73 319.717 1158.21 318.402 1161.23 315.404L1171.67 305.06C1173.87 302.871 1173.89 299.307 1171.7 297.101C1170.12 295.512 1167.84 295.059 1165.85 295.747C1166.56 293.772 1166.12 291.479 1164.55 289.891C1162.97 288.301 1160.69 287.849 1158.7 288.538C1159.41 286.562 1158.97 284.27 1157.4 282.68C1155.82 281.091 1153.54 280.639 1151.55 281.328C1152.26 279.352 1151.82 277.059 1150.25 275.47C1149.01 274.217 1147.32 273.671 1145.69 273.834C1145.71 271.638 1144.96 269.735 1144.11 268.294C1143.47 267.226 1142.76 266.38 1142.21 265.801C1141.93 265.51 1141.7 265.282 1141.52 265.124C1141.43 265.044 1141.36 264.981 1141.31 264.936L1141.24 264.882L1141.22 264.865L1141.21 264.859L1141.21 264.855C1141.21 264.855 1141.21 264.855 1140.16 266.158L1141.21 264.855C1141.15 264.809 1141.09 264.766 1141.03 264.728ZM1140.09 268.437C1139.33 269.092 1138.57 269.749 1137.8 270.408L1137.73 270.472C1136.53 271.498 1135.33 272.529 1134.14 273.575C1130.6 276.683 1127.24 279.867 1124.6 283.267C1121.62 287.099 1119.63 291.11 1119.3 295.497C1125.01 296.928 1131.03 299.736 1134.93 305.193C1139.08 311.005 1143 314.759 1146.39 317.182C1146.59 317.205 1146.87 317.231 1147.22 317.249C1148 317.289 1149.11 317.286 1150.39 317.11C1151.56 316.95 1152.86 316.65 1154.19 316.116C1153.86 315.904 1153.56 315.656 1153.28 315.371C1151.7 313.782 1151.27 311.49 1151.97 309.514C1149.99 310.202 1147.7 309.75 1146.13 308.161C1144.55 306.572 1144.12 304.28 1144.82 302.304C1142.84 302.992 1140.55 302.54 1138.97 300.951C1137.4 299.362 1136.96 297.07 1137.67 295.094C1135.69 295.782 1133.4 295.33 1131.82 293.741C1129.63 291.534 1129.65 287.971 1131.86 285.783L1133.03 286.97L1134.21 288.157C1133.32 289.045 1133.31 290.491 1134.2 291.387C1135.08 292.282 1136.53 292.288 1137.43 291.4L1147.86 281.054C1148.75 280.166 1148.76 278.72 1147.87 277.824C1146.99 276.929 1145.54 276.923 1144.64 277.811L1134.21 288.157L1133.03 286.97L1131.86 285.783L1142.02 275.704C1142.75 273.483 1142.14 271.529 1141.24 270.004C1140.86 269.383 1140.45 268.853 1140.09 268.437ZM1158.88 313.03C1157.99 313.919 1156.54 313.912 1155.65 313.017C1154.76 312.121 1154.77 310.675 1155.66 309.787L1166.09 299.441C1166.99 298.553 1168.44 298.559 1169.32 299.455C1170.22 300.351 1170.21 301.796 1169.31 302.684L1158.88 313.03ZM1155.83 324.811C1155.5 324.767 1155.14 324.709 1154.75 324.634C1152.24 324.145 1148.8 322.944 1144.8 320.152C1140.98 317.491 1136.68 313.399 1132.21 307.136C1128.69 302.213 1122.95 299.681 1117.23 298.445C1115.39 298.049 1111.62 297.831 1108.15 297.722C1106.46 297.668 1104.88 297.641 1103.73 297.628C1103.66 297.627 1103.59 297.626 1103.53 297.625C1103.51 306.871 1103.34 313.589 1102.07 319.097C1100.96 323.924 1099.01 327.797 1095.71 331.671C1100.26 331.874 1103.46 332.345 1106.74 333.056C1111.98 334.193 1116.95 335.936 1121.61 338.155C1126.67 340.562 1131.36 343.527 1135.64 346.887C1142.82 341.535 1148.14 335.564 1151.7 330.851C1153.55 328.403 1154.92 326.301 1155.83 324.811ZM1092.64 334.922C1090.86 336.648 1088.79 338.424 1086.4 340.329C1087.56 345.475 1090.41 354.847 1095.03 364.06C1101.59 353.513 1104.21 342.998 1104.65 336.039C1101.38 335.402 1097.95 335.016 1092.64 334.922ZM1107.95 336.772C1107.35 344.647 1104.28 356.16 1096.82 367.456C1098.32 370.142 1099.96 372.758 1101.76 375.194C1102.21 375.806 1102.19 376.648 1101.71 377.239C1101.23 377.83 1100.41 378.023 1099.72 377.707C1097 376.468 1094.47 375.155 1092.11 373.814C1088.43 378.26 1083.98 382.555 1078.64 386.448C1072.67 390.804 1065.6 394.65 1057.26 397.641L1057.25 397.645C1031.99 406.548 1016.89 421.714 1009.2 434.385C1005.5 440.469 1003.42 445.994 1002.52 450.039C1006.21 451.452 1010.12 452.814 1013.73 453.859C1017.76 440.298 1033.15 414.031 1067.04 404.125C1070.07 403.237 1072.95 402.128 1075.7 400.832C1081.68 397.999 1086.97 394.267 1091.63 389.986C1107.96 374.975 1116.33 353.309 1119 340.627C1115.48 339.036 1111.79 337.732 1107.95 336.772ZM1077.24 501.394C1079.03 500.947 1080.36 499.326 1080.36 497.399C1080.36 495.126 1078.52 493.283 1076.24 493.283C1073.97 493.283 1072.12 495.126 1072.12 497.399C1072.12 499.602 1073.85 501.398 1076.03 501.511C1076.43 501.49 1076.83 501.453 1077.24 501.394ZM1069.14 499.706C1068.91 498.979 1068.78 498.206 1068.78 497.399C1068.78 495.063 1069.85 492.978 1071.53 491.611C1069.85 490.241 1068.78 488.155 1068.78 485.824C1068.78 483.487 1069.85 481.402 1071.53 480.032C1069.85 478.665 1068.78 476.58 1068.78 474.244C1068.78 471.908 1069.85 469.822 1071.53 468.456C1069.85 467.089 1068.78 465.004 1068.78 462.668C1068.78 460.332 1069.85 458.247 1071.53 456.88C1069.85 455.514 1068.78 453.428 1068.78 451.092C1068.78 450.779 1068.8 450.474 1068.84 450.173C1064.3 454.214 1060.19 462.384 1060.19 476.693C1060.19 487.884 1063.43 495.08 1067.72 498.67C1068.18 499.054 1068.65 499.397 1069.14 499.706ZM1058.49 462.396C1061.83 449.274 1069.71 443.449 1076.49 443.57C1078.9 443.616 1080.59 444.665 1081.86 446.09C1082.82 447.16 1083.6 448.526 1084.31 449.747C1084.46 450.022 1084.61 450.286 1084.76 450.541C1085.64 452.028 1086.51 453.307 1087.7 454.235C1088.84 455.121 1090.38 455.764 1092.74 455.764C1096.27 455.764 1099.46 455.76 1102.89 454.878C1105.74 454.147 1108.81 452.793 1112.34 450.244C1111.03 449.546 1109.33 448.539 1107.53 447.193C1103.73 444.352 1099.36 439.909 1097.45 433.612C1096.54 432.375 1096.01 430.845 1096.01 429.195C1096.01 426.098 1097.89 423.444 1100.58 422.316C1100.49 422.166 1100.4 422.015 1100.32 421.852C1099.37 420.034 1098.47 417.328 1098.47 413.631C1098.47 410.74 1097.34 408.528 1095.03 406.963C1092.61 405.335 1088.76 404.317 1083.22 404.317C1080.94 404.317 1078.77 404.225 1076.71 404.048C1073.94 405.334 1071.03 406.44 1067.97 407.334C1035.45 416.841 1020.76 442.02 1016.96 454.728C1019.67 455.388 1022.01 455.764 1023.74 455.764C1026.1 455.764 1027.64 455.121 1028.78 454.235C1029.97 453.307 1030.84 452.028 1031.72 450.541C1031.87 450.286 1032.02 450.022 1032.18 449.747C1032.88 448.526 1033.66 447.16 1034.62 446.09C1035.9 444.665 1037.58 443.616 1039.99 443.57C1046.75 443.449 1054.98 449.245 1058.49 462.396ZM1082.52 400.971C1082.75 400.973 1082.98 400.974 1083.22 400.974C1089.08 400.974 1093.7 402.035 1096.89 404.193C1099.71 406.092 1101.31 408.765 1101.71 411.959H1118.12C1117.89 408.881 1117.11 406.438 1115.95 404.456C1114.58 402.123 1112.62 400.326 1110.23 398.87C1105.83 396.198 1100.17 394.789 1094.3 393.325C1093.94 393.236 1093.58 393.147 1093.22 393.056C1089.96 395.978 1086.4 398.654 1082.52 400.971ZM1101.89 415.302H1145.57C1145.3 417.612 1144.5 419.203 1143.74 420.243C1143.27 420.887 1142.81 421.334 1142.48 421.61C1142.41 421.664 1142.36 421.71 1142.3 421.752C1139.7 421.944 1137.47 423.465 1136.29 425.647C1135.03 423.315 1132.56 421.731 1129.72 421.731C1126.89 421.731 1124.42 423.315 1123.16 425.647C1121.9 423.315 1119.43 421.731 1116.59 421.731C1113.76 421.731 1111.29 423.315 1110.03 425.647C1108.88 423.528 1106.74 422.028 1104.24 421.773C1103.99 421.468 1103.64 420.983 1103.28 420.302C1102.71 419.199 1102.1 417.554 1101.89 415.302ZM1142.02 421.957H1142.01L1142.01 421.961L1142.02 421.957ZM1076.24 458.552C1073.97 458.552 1072.12 460.395 1072.12 462.668C1072.12 464.941 1073.97 466.784 1076.24 466.784C1078.52 466.784 1080.36 464.941 1080.36 462.668C1080.36 460.395 1078.52 458.552 1076.24 458.552ZM1076.24 470.127C1073.97 470.127 1072.12 471.97 1072.12 474.244C1072.12 476.517 1073.97 478.36 1076.24 478.36C1078.52 478.36 1080.36 476.517 1080.36 474.244C1080.36 471.97 1078.52 470.127 1076.24 470.127ZM1076.24 481.703C1073.97 481.703 1072.12 483.546 1072.12 485.824C1072.12 488.097 1073.97 489.94 1076.24 489.94C1078.52 489.94 1080.36 488.097 1080.36 485.824C1080.36 483.546 1078.52 481.703 1076.24 481.703ZM999.373 448.806C1000.4 444.515 1002.54 439.003 1006.1 433.056V399.213C1002.32 399.725 999.82 401.951 998.17 404.415C997.355 405.63 996.761 406.885 996.343 407.981C997.752 409.003 998.671 410.663 998.671 412.542C998.671 414.532 997.639 416.282 996.076 417.282C997.639 418.283 998.671 420.03 998.671 422.024C998.671 424.013 997.639 425.764 996.076 426.762C997.639 427.765 998.671 429.512 998.671 431.506C998.671 433.495 997.639 435.246 996.076 436.244C997.639 437.247 998.671 438.994 998.671 440.988C998.671 443.783 996.632 446.107 993.957 446.541C993.99 446.554 994.028 446.571 994.061 446.587C995.666 447.285 997.463 448.037 999.373 448.806ZM982.798 443.269H993.046C994.308 443.269 995.328 442.25 995.328 440.988C995.328 439.726 994.308 438.702 993.046 438.702H978.351C977.089 438.702 976.065 439.726 976.065 440.988C976.065 441.497 976.232 441.965 976.517 442.346C978.272 442.496 980.102 442.751 982.004 443.115H982.017L982.067 443.127L982.259 443.165C982.393 443.19 982.572 443.223 982.798 443.269ZM980.328 446.207C978.694 445.927 977.127 445.735 975.626 445.63C972.91 445.434 970.411 445.513 968.125 445.823C955.227 447.565 948.607 456.7 947.291 466.801C945.962 477.027 950.108 487.896 958.466 492.869C970.578 500.082 982.309 498.118 994.734 495.962L994.977 495.92C1007.08 493.818 1019.84 491.607 1033.05 499.054C1032.92 498.523 1032.86 497.968 1032.86 497.399C1032.86 495.063 1033.93 492.978 1035.61 491.611C1033.93 490.241 1032.86 488.155 1032.86 485.824C1032.86 483.487 1033.93 481.402 1035.61 480.032C1033.93 478.665 1032.86 476.58 1032.86 474.244C1032.86 471.908 1033.93 469.822 1035.61 468.456C1033.93 467.089 1032.86 465.004 1032.86 462.668C1032.86 460.332 1033.93 458.247 1035.61 456.88C1034.68 456.124 1033.94 455.146 1033.46 454.03C1032.76 455.037 1031.91 456.032 1030.84 456.872C1029.07 458.247 1026.79 459.107 1023.74 459.107C1021.21 459.107 1017.94 458.472 1014.46 457.536C1009.85 456.299 1004.68 454.473 1000 452.647C998.27 451.974 996.602 451.297 995.052 450.645L995.002 459.638C994.998 460.169 994.743 460.666 994.316 460.98C993.886 461.293 993.334 461.385 992.828 461.226C988.595 459.897 985.828 458.071 983.897 455.309C982.196 452.877 981.243 449.839 980.328 446.207ZM991.717 449.237C989.126 448.226 986.096 447.44 983.981 446.951C984.741 449.73 985.506 451.778 986.639 453.395C987.734 454.958 989.238 456.212 991.671 457.248L991.717 449.237ZM1047.72 450.081C1047.76 450.411 1047.78 450.75 1047.78 451.092C1047.78 453.428 1046.71 455.514 1045.03 456.88C1046.71 458.247 1047.78 460.332 1047.78 462.668C1047.78 465.004 1046.71 467.089 1045.03 468.456C1046.71 469.822 1047.78 471.908 1047.78 474.244C1047.78 476.58 1046.71 478.665 1045.03 480.032C1046.71 481.402 1047.78 483.487 1047.78 485.824C1047.78 488.155 1046.71 490.241 1045.03 491.611C1046.71 492.978 1047.78 495.063 1047.78 497.399C1047.78 498.248 1047.64 499.062 1047.38 499.823C1047.96 499.484 1048.52 499.092 1049.07 498.653C1053.49 495.055 1056.85 487.863 1056.85 476.693C1056.85 462.3 1052.46 454.097 1047.72 450.081ZM1040.53 501.511C1042.71 501.398 1044.44 499.602 1044.44 497.399C1044.44 495.126 1042.6 493.283 1040.32 493.283C1038.05 493.283 1036.2 495.126 1036.2 497.399C1036.2 499.342 1037.55 500.972 1039.37 501.403C1039.75 501.457 1040.14 501.49 1040.53 501.511ZM1040.32 458.552C1038.05 458.552 1036.2 460.395 1036.2 462.668C1036.2 464.941 1038.05 466.784 1040.32 466.784C1042.6 466.784 1044.44 464.941 1044.44 462.668C1044.44 460.395 1042.6 458.552 1040.32 458.552ZM1040.32 470.127C1038.05 470.127 1036.2 471.97 1036.2 474.244C1036.2 476.517 1038.05 478.36 1040.32 478.36C1042.6 478.36 1044.44 476.517 1044.44 474.244C1044.44 471.97 1042.6 470.127 1040.32 470.127ZM1040.32 481.703C1038.05 481.703 1036.2 483.546 1036.2 485.824C1036.2 488.097 1038.05 489.94 1040.32 489.94C1042.6 489.94 1044.44 488.097 1044.44 485.824C1044.44 483.546 1042.6 481.703 1040.32 481.703ZM972.851 442.183C972.768 441.794 972.722 441.397 972.722 440.988C972.722 438.994 973.758 437.247 975.317 436.244C973.758 435.246 972.722 433.495 972.722 431.506C972.722 429.512 973.758 427.765 975.317 426.762C973.758 425.764 972.722 424.013 972.722 422.024C972.722 420.03 973.758 418.283 975.317 417.282C973.758 416.282 972.722 414.532 972.722 412.542C972.722 409.455 975.209 406.95 978.284 406.915V398.757C978.284 397.834 979.033 397.085 979.956 397.085H994.304C994.617 397.085 994.91 397.172 995.161 397.323L995.328 378.273L998.671 378.302L998.491 399.062C1000.76 397.152 1003.8 395.76 1007.77 395.76C1008.69 395.76 1009.44 396.509 1009.44 397.432V427.97C1017.8 416.337 1031.85 403.735 1053.22 395.562C1045.87 389.437 1043.03 380.919 1043.03 372.624C1043.03 372.336 1043.03 372.05 1043.03 371.768C1043.03 367.915 1043.03 364.53 1042.75 361.424C1041.42 362.281 1039.98 363.445 1038.68 364.604C1037.73 365.459 1036.9 366.267 1036.3 366.862C1036 367.159 1035.77 367.401 1035.61 367.568C1035.53 367.652 1035.47 367.716 1035.43 367.759L1035.38 367.807L1035.37 367.818C1034.78 368.462 1033.78 368.536 1033.1 367.985L1023.91 360.578C1023.27 360.071 1023.1 359.186 1023.48 358.476L1023.5 358.456L1023.53 358.384C1023.57 358.318 1023.62 358.218 1023.69 358.086C1023.83 357.821 1024.03 357.428 1024.27 356.923C1024.77 355.912 1025.45 354.454 1026.18 352.681C1027.56 349.357 1029.13 344.966 1030.05 340.348C1027.58 338.381 1025.46 336.58 1023.64 334.868C1007.71 335.106 993.643 341.372 982.589 350.449C966.837 363.39 957.442 381.848 957.442 396.236C957.442 408.88 959.206 419.512 961.563 427.54C963.761 435.008 966.419 440.039 968.526 442.404C969.909 442.254 971.351 442.179 972.851 442.183ZM1020.5 331.644C1016.88 327.548 1014.99 323.693 1014.06 318.87C1013.15 314.129 1013.17 308.435 1013.21 300.753C1013.21 299.742 1013.22 298.697 1013.22 297.614H1007.4C1000.28 297.614 990.074 299.757 984.8 307.136C977.875 316.833 971.364 321.32 966.444 323.351C964.355 324.215 962.566 324.626 961.187 324.81C962.111 326.318 963.506 328.452 965.387 330.937C968.986 335.689 974.327 341.697 981.482 347.048C992.143 338.585 1005.45 332.575 1020.5 331.644ZM1016.56 297.614C1016.56 298.744 1016.56 299.826 1016.55 300.865C1016.52 308.556 1016.5 313.845 1017.35 318.238C1018.32 323.309 1020.47 327.162 1025.46 331.987C1027.46 333.912 1029.91 335.987 1032.91 338.351C1040.29 344.154 1044.73 351.533 1045.78 358.571C1046.38 362.573 1046.38 366.92 1046.37 371.676C1046.37 371.99 1046.37 372.306 1046.37 372.624C1046.37 380.715 1049.32 388.771 1056.93 394.202C1063.86 391.645 1069.84 388.484 1074.99 384.943C1072.11 382.014 1070.38 378.061 1070.38 372.624C1070.38 367.156 1070.53 362.035 1071.52 357.264C1073 350.224 1076.32 344.004 1083.51 338.351C1086.43 336.055 1088.83 334.005 1090.8 332.053C1095.31 327.576 1097.6 323.609 1098.82 318.345C1099.99 313.252 1100.17 306.914 1100.19 297.614H1067.5C1063.64 297.614 1060.18 300.932 1060.18 304.754C1060.18 305.677 1059.43 306.426 1058.51 306.426C1057.58 306.426 1056.83 305.677 1056.83 304.754C1056.83 300.899 1053.32 297.614 1049.8 297.614H1033.69H1016.56ZM1032.03 294.271H1016.59C1017.04 280.215 1023.06 270.51 1030.32 264.245C1037.67 257.898 1046.25 255.108 1051.57 254.925L1054.59 257.218C1053.85 257.462 1053.07 257.765 1052.26 258.13C1049.58 259.331 1046.44 261.266 1043.43 264.212C1037.59 269.931 1032.39 279.346 1032.03 294.271ZM1056.83 260.04V286.833C1056.83 289.035 1055.25 290.876 1053.19 292.305C1052.21 292.991 1051.21 293.51 1050.46 293.86C1050.08 294.034 1049.77 294.163 1049.55 294.247C1049.53 294.255 1049.51 294.264 1049.5 294.271H1035.38C1035.74 280.199 1040.61 271.655 1045.77 266.6C1048.47 263.957 1051.28 262.236 1053.63 261.18C1054.89 260.615 1055.98 260.255 1056.83 260.04ZM1054.45 295.483C1056.07 296.356 1057.49 297.655 1058.51 299.227C1059.54 297.648 1060.99 296.348 1062.66 295.476C1062.47 295.355 1062.27 295.228 1062.08 295.096C1060.87 294.291 1059.53 293.194 1058.51 291.789C1057.53 293.163 1056.26 294.246 1055.1 295.05C1054.89 295.201 1054.67 295.346 1054.45 295.483ZM1060.18 286.833V260.041C1061.03 260.256 1062.11 260.616 1063.36 261.179C1065.7 262.235 1068.5 263.954 1071.19 266.598C1076.32 271.651 1081.17 280.197 1081.53 294.271H1067.79C1067.76 294.261 1067.73 294.251 1067.7 294.239C1067.48 294.156 1067.16 294.03 1066.77 293.859C1065.99 293.514 1064.96 292.999 1063.94 292.317C1061.8 290.893 1060.18 289.052 1060.18 286.833ZM1084.87 294.271H1100.16C1099.71 280.215 1093.69 270.51 1086.43 264.245C1079.09 257.905 1070.52 255.114 1065.2 254.926L1062.34 257.193C1063.09 257.441 1063.9 257.752 1064.74 258.131C1067.4 259.333 1070.53 261.268 1073.53 264.215C1079.34 269.934 1084.51 279.349 1084.87 294.271ZM1058.49 255.981L1062.43 252.859L1058.48 246.491L1054.36 252.851L1058.49 255.981ZM1077.74 382.958C1082.21 379.568 1086 375.886 1089.2 372.086C1082.61 368.022 1077.64 363.877 1074.3 360.895C1073.82 364.487 1073.72 368.362 1073.72 372.624C1073.72 377.435 1075.27 380.631 1077.74 382.958ZM1075.01 357.028C1078.45 360.172 1084.28 365.33 1092.56 370.212C1093.52 370.776 1094.51 371.336 1095.53 371.889C1094.79 370.663 1094.08 369.418 1093.4 368.165C1088.32 358.77 1085.07 348.833 1083.53 342.708C1078.69 347.101 1076.25 351.791 1075.01 357.028ZM1013.25 294.271H1009.07V280.605C1009.44 280.673 1009.83 280.722 1010.18 280.722C1012.85 280.722 1015.22 279.447 1016.71 277.473C1014.71 282.305 1013.44 287.884 1013.25 294.271ZM1009.07 277.181C1009.55 277.304 1009.96 277.378 1010.18 277.378C1012.86 277.378 1015.02 275.212 1015.02 272.539C1015.02 269.866 1012.86 267.7 1010.18 267.7C1007.51 267.7 1005.34 269.866 1005.34 272.539C1005.34 272.842 1005.37 273.126 1005.42 273.405H1007.39C1008.32 273.405 1009.07 274.153 1009.07 275.076V277.181ZM1002.08 273.703C1002.03 273.324 1002 272.937 1002 272.539C1002 269.477 1003.68 266.808 1006.17 265.405C1004.52 263.908 1003.48 261.744 1003.48 259.338C1003.48 257.923 1003.84 256.593 1004.47 255.432C1000.3 255.088 997.012 251.615 996.966 247.365C995.612 248.361 993.936 248.949 992.126 248.949C989.084 248.949 986.43 247.29 985.022 244.827C983.609 247.29 980.955 248.949 977.912 248.949C976.103 248.949 974.431 248.361 973.073 247.365C973.031 251.615 969.746 255.088 965.571 255.432C966.202 256.593 966.561 257.923 966.561 259.338C966.561 261.819 965.458 264.042 963.715 265.542C966.077 266.977 967.652 269.574 967.652 272.539C967.652 273.141 967.585 273.729 967.464 274.296C967.707 274.61 967.92 274.951 968.091 275.314C968.998 273.421 970.933 272.115 973.169 272.115C975.409 272.115 977.34 273.421 978.247 275.313C979.154 273.421 981.089 272.115 983.325 272.115C985.565 272.115 987.496 273.421 988.403 275.313C989.309 273.421 991.245 272.115 993.48 272.115C995.867 272.115 997.902 273.599 998.725 275.693C999.591 274.867 1000.71 274.105 1002.08 273.703ZM999.11 280.895V292.434C999.11 293.477 998.826 294.454 998.328 295.291C1000.93 294.698 1003.47 294.403 1005.73 294.307V276.748H1004.18C1002.54 276.748 1001.28 277.689 1000.34 278.862C999.883 279.438 999.54 280.022 999.315 280.466C999.227 280.636 999.16 280.782 999.11 280.895ZM991.378 297.655C990.07 297.129 989.009 296.126 988.403 294.863C987.496 296.755 985.565 298.061 983.325 298.061C981.089 298.061 979.154 296.755 978.247 294.863C977.34 296.755 975.409 298.061 973.169 298.061C970.933 298.061 968.998 296.755 968.091 294.863C967.184 296.755 965.253 298.061 963.013 298.061C962.52 298.061 962.044 297.998 961.588 297.879C961.889 300.168 962.566 302.458 963.832 304.692C965.68 307.941 968.868 311.204 974.302 314.174C976.738 311.927 979.359 309.002 982.079 305.193C984.537 301.755 987.83 299.33 991.378 297.655ZM964.3 272.263C964.158 269.719 962.048 267.7 959.469 267.7C956.794 267.7 954.63 269.866 954.63 272.539C954.63 274.489 955.783 276.17 957.442 276.936C957.835 274.21 960.18 272.115 963.013 272.115C963.456 272.115 963.887 272.166 964.3 272.263ZM1032.95 342.753C1031.95 347.001 1030.53 350.936 1029.27 353.962C1028.51 355.808 1027.8 357.328 1027.28 358.389C1027.2 358.546 1027.13 358.692 1027.06 358.829L1034.01 364.426C1034.63 363.807 1035.48 362.984 1036.46 362.112C1038.09 360.653 1040.21 358.926 1042.25 357.846C1041.17 352.793 1038.07 347.405 1032.95 342.753ZM992.632 406.914V400.428H981.628V406.914H992.632ZM977.912 235.927C975.242 235.927 973.073 238.094 973.073 240.766C973.073 243.439 975.242 245.606 977.912 245.606C980.587 245.606 982.752 243.439 982.752 240.766C982.752 238.094 980.587 235.927 977.912 235.927ZM992.126 235.927C989.452 235.927 987.287 238.094 987.287 240.767C987.287 243.439 989.452 245.606 992.126 245.606C994.801 245.606 996.966 243.439 996.966 240.767C996.966 238.094 994.801 235.927 992.126 235.927ZM964.89 242.438C962.219 242.438 960.05 244.605 960.05 247.277C960.05 249.95 962.219 252.117 964.89 252.117C967.565 252.117 969.729 249.95 969.729 247.277C969.729 244.605 967.565 242.438 964.89 242.438ZM1005.15 242.438C1002.47 242.438 1000.31 244.605 1000.31 247.277C1000.31 249.95 1002.47 252.117 1005.15 252.117C1007.82 252.117 1009.99 249.95 1009.99 247.277C1009.99 244.605 1007.82 242.438 1005.15 242.438ZM958.378 254.498C955.708 254.498 953.539 256.665 953.539 259.338C953.539 262.01 955.708 264.177 958.378 264.177C961.053 264.177 963.218 262.01 963.218 259.338C963.218 256.665 961.053 254.498 958.378 254.498ZM1011.66 254.498C1008.99 254.498 1006.82 256.665 1006.82 259.338C1006.82 262.01 1008.99 264.177 1011.66 264.177C1014.34 264.177 1016.5 262.01 1016.5 259.338C1016.5 256.665 1014.34 254.498 1011.66 254.498ZM963.013 275.458C961.751 275.458 960.731 276.481 960.731 277.742V292.434C960.731 292.902 960.869 293.332 961.108 293.691C961.517 294.314 962.219 294.718 963.013 294.718C964.275 294.718 965.299 293.696 965.299 292.434V277.742C965.299 277.051 964.994 276.433 964.505 276.012C964.104 275.666 963.586 275.458 963.013 275.458ZM973.169 275.458C971.907 275.458 970.887 276.481 970.887 277.742V292.434C970.887 293.696 971.907 294.718 973.169 294.718C974.431 294.718 975.455 293.696 975.455 292.434V277.742C975.455 276.481 974.431 275.458 973.169 275.458ZM983.325 275.458C982.063 275.458 981.043 276.481 981.043 277.742V292.434C981.043 293.696 982.063 294.718 983.325 294.718C984.587 294.718 985.611 293.696 985.611 292.434V277.742C985.611 276.481 984.587 275.458 983.325 275.458ZM993.48 275.458C992.218 275.458 991.199 276.481 991.199 277.742V292.434C991.199 293.696 992.218 294.718 993.48 294.718C994.743 294.718 995.767 293.696 995.767 292.434V277.742C995.767 276.481 994.743 275.458 993.48 275.458ZM1155.02 285.035C1154.14 284.139 1152.69 284.133 1151.79 285.021L1141.36 295.367C1140.47 296.255 1140.46 297.701 1141.35 298.597C1142.23 299.492 1143.68 299.498 1144.58 298.61L1155.01 288.265C1155.91 287.376 1155.91 285.93 1155.02 285.035ZM1162.17 292.245C1161.29 291.349 1159.84 291.343 1158.94 292.231L1148.51 302.577C1147.62 303.465 1147.61 304.911 1148.5 305.807C1149.39 306.703 1150.83 306.708 1151.73 305.82L1162.16 295.475C1163.06 294.587 1163.06 293.14 1162.17 292.245ZM978.351 410.257C977.089 410.257 976.065 411.28 976.065 412.542C976.065 413.803 977.089 414.825 978.351 414.825H993.046C994.308 414.825 995.328 413.803 995.328 412.542C995.328 411.536 994.68 410.679 993.773 410.375C993.547 410.299 993.301 410.257 993.046 410.257H978.351ZM978.351 419.738C977.089 419.738 976.065 420.761 976.065 422.024C976.065 423.286 977.089 424.305 978.351 424.305H993.046C994.308 424.305 995.328 423.286 995.328 422.024C995.328 420.761 994.308 419.738 993.046 419.738H978.351ZM1103.47 425.078C1101.19 425.078 1099.35 426.921 1099.35 429.195C1099.35 430.177 1099.69 431.075 1100.27 431.786C1101.03 432.717 1102.18 433.311 1103.47 433.311C1105.74 433.311 1107.58 431.468 1107.58 429.195C1107.58 426.921 1105.74 425.078 1103.47 425.078ZM1116.59 425.078C1114.32 425.078 1112.48 426.921 1112.48 429.195C1112.48 431.468 1114.32 433.311 1116.59 433.311C1118.87 433.311 1120.71 431.468 1120.71 429.195C1120.71 426.921 1118.87 425.078 1116.59 425.078ZM1129.72 425.078C1127.45 425.078 1125.61 426.921 1125.61 429.195C1125.61 431.468 1127.45 433.311 1129.72 433.311C1132 433.311 1133.84 431.468 1133.84 429.195C1133.84 426.921 1132 425.078 1129.72 425.078ZM1142.85 425.078C1140.58 425.078 1138.74 426.921 1138.74 429.195C1138.74 431.468 1140.58 433.311 1142.85 433.311C1145.13 433.311 1146.97 431.468 1146.97 429.195C1146.97 426.921 1142.85 425.078 1142.85 425.078ZM978.351 429.22C977.089 429.22 976.065 430.244 976.065 431.506C976.065 432.768 977.089 433.787 978.351 433.787H993.046C994.308 433.787 995.328 432.768 995.328 431.506C995.328 430.244 994.308 429.22 993.046 429.22H978.351ZM1040.32 446.976C1038.05 446.976 1036.2 448.819 1036.2 451.092C1036.2 453.366 1038.05 455.209 1040.32 455.209C1042.6 455.209 1044.44 453.366 1044.44 451.092C1044.44 448.819 1042.6 446.976 1040.32 446.976ZM1076.24 446.976C1073.97 446.976 1072.12 448.819 1072.12 451.092C1072.12 453.366 1073.97 455.209 1076.24 455.209C1078.52 455.209 1080.36 453.366 1080.36 451.092C1080.36 448.819 1078.52 446.976 1076.24 446.976ZM952.022 502.13C952.644 501.754 953.443 501.829 953.99 502.309C955.282 503.45 956.452 504.248 958.186 504.854C959.975 505.481 962.432 505.933 966.332 506.238C974.151 506.852 987.27 506.856 1011.35 506.856H1011.58C1023.65 506.856 1032.86 506.856 1040.33 508.833C1047.38 510.692 1052.85 514.291 1057.86 521.006C1062.84 514.295 1068.15 510.546 1075.23 508.607C1082.8 506.53 1092.33 506.551 1105.39 506.856C1129.07 507.408 1141.34 507.404 1148.75 506.672C1152.42 506.313 1154.83 505.778 1156.8 505.076C1158.78 504.366 1160.39 503.467 1162.52 502.255C1163.06 501.942 1163.74 501.967 1164.27 502.314C1164.79 502.665 1165.08 503.279 1165 503.906C1164.22 510.483 1162.7 518.574 1158.91 525.051C1155.05 531.641 1148.82 536.577 1138.86 536.577H1084.53C1076.33 536.577 1071.31 536.585 1067.63 537.329C1064.15 538.031 1061.92 539.385 1059.38 542.277C1059.05 542.649 1058.57 542.858 1058.08 542.845C1057.58 542.833 1057.11 542.599 1056.81 542.206C1055.64 540.722 1054.59 539.694 1053.46 538.942C1052.34 538.198 1051.06 537.68 1049.37 537.325C1045.86 536.585 1040.86 536.577 1032.29 536.577H982.138C972.35 536.577 965.433 532.013 960.585 525.636C955.787 519.326 952.991 511.227 951.257 503.952C951.085 503.241 951.399 502.506 952.022 502.13ZM1157.93 508.223C1155.63 509.046 1152.93 509.623 1149.08 509.999C1141.43 510.751 1128.93 510.747 1105.31 510.199C1092.12 509.89 1083.12 509.911 1076.12 511.829C1069.28 513.701 1064.28 517.412 1059.24 524.834C1058.93 525.289 1058.41 525.565 1057.86 525.565C1057.3 525.565 1056.78 525.289 1056.48 524.83C1051.48 517.446 1046.31 513.868 1039.48 512.063C1032.48 510.212 1023.7 510.199 1011.35 510.199H1011.18C987.295 510.199 974.038 510.199 966.068 509.572C962.069 509.259 959.273 508.779 957.079 508.01C956.56 507.83 956.084 507.633 955.633 507.42C957.321 513.2 959.728 518.988 963.247 523.614C967.581 529.314 973.574 533.234 982.138 533.234H1032.57C1040.79 533.234 1046.16 533.234 1050.06 534.053C1052.08 534.479 1053.78 535.135 1055.31 536.155C1056.35 536.848 1057.29 537.68 1058.19 538.666C1060.72 536.184 1063.33 534.784 1066.97 534.049C1071.02 533.234 1076.39 533.234 1084.29 533.234H1138.86C1147.44 533.234 1152.66 529.105 1156.02 523.363C1158.89 518.469 1160.38 512.418 1161.24 506.773C1160.19 507.307 1159.12 507.796 1157.93 508.223Z" fill="black"/>
<path d="M1096.11 390.328C1101.6 391.697 1107.37 393.221 1111.97 396.013C1114.39 397.485 1116.54 399.335 1118.18 401.739V378.288H1121.53V411.959H1147.34C1148.26 411.959 1149.01 412.707 1149.01 413.631C1149.01 417.614 1147.76 420.398 1146.45 422.207C1146.37 422.32 1146.28 422.425 1146.2 422.529C1148.64 423.754 1150.31 426.278 1150.31 429.195C1150.31 433.315 1146.97 436.654 1142.85 436.654C1140.02 436.654 1137.55 435.07 1136.29 432.743C1135.03 435.07 1132.56 436.654 1129.73 436.654C1126.89 436.654 1124.42 435.07 1123.16 432.743C1121.9 435.07 1119.43 436.654 1116.59 436.654C1113.76 436.654 1111.3 435.07 1110.03 432.743C1108.77 435.07 1106.3 436.654 1103.47 436.654C1103.08 436.654 1102.7 436.625 1102.33 436.566C1104.23 439.964 1106.95 442.592 1109.53 444.515C1111.3 445.835 1112.96 446.801 1114.18 447.436C1114.79 447.749 1115.29 447.983 1115.62 448.134C1115.62 448.134 1127.01 451.815 1136.29 449.199C1142.5 447.452 1148.49 442.216 1148.49 442.216C1150.66 440.223 1153.55 435.225 1155.91 427.306C1158.23 419.47 1159.96 408.982 1159.96 396.236C1159.96 381.78 1150.46 363.228 1134.54 350.289C1130.88 347.312 1126.89 344.643 1122.62 342.396L1122.08 342.086L1121.94 342.766L1121.79 343.446C1118.73 356.152 1110.79 375.706 1096.11 390.328Z" fill="#F8C249"/>
<path d="M1115.8 451.815C1111.36 455.313 1107.44 457.16 1103.72 458.117C1099.85 459.112 1096.2 459.112 1092.74 459.107C1089.69 459.107 1087.41 458.247 1085.65 456.872C1084.6 456.053 1083.77 455.083 1083.07 454.101C1082.59 455.188 1081.86 456.14 1080.95 456.88C1082.63 458.247 1083.7 460.332 1083.7 462.668C1083.7 465.004 1082.63 467.089 1080.95 468.456C1082.63 469.822 1083.7 471.908 1083.7 474.244C1083.7 476.58 1082.63 478.665 1080.95 480.031C1082.63 481.402 1083.7 483.487 1083.7 485.823C1083.7 488.155 1082.63 490.241 1080.95 491.611C1082.63 492.978 1083.7 495.063 1083.7 497.399C1083.7 497.951 1083.64 498.486 1083.53 499.004C1096.7 491.615 1109.43 493.826 1121.51 495.92L1121.75 495.962C1134.17 498.118 1145.9 500.082 1158.02 492.869C1166.21 487.992 1170.3 477.194 1169.09 466.855C1167.92 456.859 1161.84 447.724 1150.18 445.254C1149.98 445.442 1149.75 445.655 1149.47 445.894C1148.59 446.663 1147.3 447.682 1145.62 448.714C1142.25 450.779 1137.32 452.906 1131.04 453.148C1125.08 453.378 1121.09 452.981 1118.55 452.505C1117.31 452.271 1116.42 452.02 1115.8 451.815Z" fill="#F8C249"/>
<path d="M1019.69 386.51C1019.69 388.948 1017.72 390.924 1015.28 390.924C1012.84 390.924 1010.86 388.948 1010.86 386.51C1010.86 384.072 1012.84 382.097 1015.28 382.097C1017.72 382.097 1019.69 384.072 1019.69 386.51Z" fill="black"/>
<path d="M1062.93 435.781C1062.93 438.217 1060.96 440.194 1058.52 440.194C1056.08 440.194 1054.11 438.217 1054.11 435.781C1054.11 433.344 1056.08 431.368 1058.52 431.368C1060.96 431.368 1062.93 433.344 1062.93 435.781Z" fill="black"/>
<path d="M1031.83 310.217H1041.24C1045.74 310.217 1049.4 313.869 1049.4 318.374H1039.99C1035.48 318.374 1031.83 314.722 1031.83 310.217Z" fill="black"/>
<path d="M1067.64 318.374H1077.05C1081.56 318.374 1085.21 314.722 1085.21 310.217H1075.8C1071.3 310.217 1067.64 313.869 1067.64 318.374Z" fill="black"/>
<path d="M36.5576 751.132V700.546H46.7724V751.132H36.5576ZM56.6423 751.132V700.546H66.5815L87.2875 734.329V700.546H96.7774V751.132H86.5281L66.1326 718.144V751.132H56.6423ZM105.025 734.671L114.964 733.706C115.563 737.041 116.77 739.49 118.588 741.057C120.429 742.62 122.901 743.401 126.008 743.401C129.297 743.401 131.771 742.712 133.427 741.333C135.107 739.929 135.946 738.295 135.946 736.431C135.946 735.236 135.59 734.224 134.876 733.397C134.186 732.544 132.967 731.809 131.218 731.186C130.022 730.773 127.296 730.037 123.04 728.98C117.564 727.622 113.722 725.954 111.513 723.973C108.407 721.19 106.855 717.797 106.855 713.794C106.855 711.219 107.579 708.816 109.029 706.585C110.501 704.328 112.606 702.615 115.344 701.441C118.105 700.27 121.429 699.681 125.317 699.681C131.667 699.681 136.441 701.073 139.639 703.856C142.86 706.639 144.551 710.354 144.712 715.001L134.497 715.452C134.06 712.853 133.117 710.989 131.667 709.861C130.241 708.712 128.09 708.135 125.214 708.135C122.246 708.135 119.922 708.745 118.243 709.966C117.162 710.747 116.621 711.792 116.621 713.104C116.621 714.303 117.127 715.323 118.139 716.175C119.428 717.258 122.557 718.386 127.526 719.556C132.495 720.731 136.165 721.951 138.535 723.217C140.927 724.458 142.791 726.172 144.125 728.357C145.483 730.518 146.161 733.201 146.161 736.397C146.161 739.298 145.356 742.01 143.746 744.542C142.135 747.07 139.857 748.959 136.913 750.2C133.968 751.421 130.298 752.031 125.904 752.031C119.508 752.031 114.596 750.556 111.168 747.614C107.74 744.642 105.693 740.33 105.025 734.671ZM166.143 751.132V709.101H151.131V700.546H191.335V709.101H176.357V751.132H166.143ZM197.65 751.132V700.546H207.865V751.132H197.65ZM229.02 751.132V709.101H214.008V700.546H254.212V709.101H239.235V751.132H229.02ZM260.769 700.546H270.984V727.943C270.984 732.289 271.11 735.11 271.364 736.397C271.801 738.466 272.836 740.133 274.47 741.4C276.126 742.645 278.381 743.263 281.233 743.263C284.132 743.263 286.318 742.678 287.79 741.504C289.263 740.309 290.148 738.846 290.447 737.12C290.747 735.394 290.896 732.532 290.896 728.528V700.546H301.111V727.116C301.111 733.188 300.835 737.48 300.283 739.987C299.731 742.494 298.707 744.609 297.211 746.335C295.739 748.061 293.76 749.44 291.276 750.476C288.791 751.488 285.547 751.993 281.544 751.993C276.713 751.993 273.043 751.442 270.535 750.338C268.051 749.21 266.083 747.76 264.634 745.988C263.185 744.195 262.23 742.319 261.77 740.367C261.102 737.467 260.769 733.188 260.769 727.53V700.546ZM323.301 751.132V709.101H308.289V700.546H348.493V709.101H333.516V751.132H323.301ZM386.178 751.132V709.101H371.166V700.546H411.37V709.101H396.393V751.132H386.178ZM417.998 751.132V700.546H455.507V709.101H428.212V720.317H453.61V728.842H428.212V742.607H456.477V751.132H417.998ZM465.274 751.132V700.546H475.489V723.008L496.126 700.546H509.863L490.814 720.25L510.896 751.132H497.681L483.772 727.392L475.489 735.846V751.132H465.274ZM516.316 751.132V700.546H526.255L546.959 734.329V700.546H556.45V751.132H546.202L525.807 718.144V751.132H516.316ZM565.214 726.151C565.214 720.994 565.987 716.673 567.529 713.175C568.679 710.597 570.242 708.286 572.223 706.238C574.225 704.19 576.411 702.673 578.78 701.683C581.931 700.35 585.563 699.681 589.684 699.681C597.136 699.681 603.095 701.992 607.559 706.618C612.048 711.24 614.288 717.672 614.288 725.908C614.288 734.074 612.068 740.468 607.63 745.094C603.187 749.695 597.253 751.993 589.822 751.993C582.299 751.993 576.319 749.707 571.876 745.127C567.438 740.526 565.214 734.199 565.214 726.151ZM575.742 725.804C575.742 731.533 577.062 735.879 579.708 738.846C582.358 741.792 585.714 743.263 589.789 743.263C593.859 743.263 597.194 741.805 599.794 738.88C602.418 735.938 603.731 731.533 603.731 725.666C603.731 719.87 602.452 715.544 599.898 712.69C597.37 709.84 593.997 708.411 589.789 708.411C585.576 708.411 582.182 709.861 579.608 712.761C577.029 715.636 575.742 719.982 575.742 725.804ZM622.571 751.132V700.96H632.785V742.607H658.187V751.132H622.571ZM663.432 726.151C663.432 720.994 664.201 716.673 665.743 713.175C666.893 710.597 668.46 708.286 670.437 706.238C672.439 704.19 674.624 702.673 676.994 701.683C680.145 700.35 683.781 699.681 687.898 699.681C695.354 699.681 701.313 701.992 705.777 706.618C710.261 711.24 712.506 717.672 712.506 725.908C712.506 734.074 710.286 740.468 705.844 745.094C701.405 749.695 695.467 751.993 688.036 751.993C680.513 751.993 674.532 749.707 670.09 745.127C665.651 740.526 663.432 734.199 663.432 726.151ZM673.956 725.804C673.956 731.533 675.281 735.879 677.926 738.846C680.572 741.792 683.932 743.263 688.002 743.263C692.073 743.263 695.412 741.805 698.012 738.88C700.632 735.938 701.945 731.533 701.945 725.666C701.945 719.87 700.666 715.544 698.112 712.69C695.584 709.84 692.211 708.411 688.002 708.411C683.794 708.411 680.4 709.861 677.821 712.761C675.247 715.636 673.956 719.982 673.956 725.804ZM744.047 732.532V724.011H766.063V744.162C763.924 746.23 760.818 748.061 756.748 749.649C752.698 751.212 748.59 751.993 744.427 751.993C739.136 751.993 734.522 750.89 730.589 748.684C726.653 746.452 723.698 743.276 721.717 739.16C719.74 735.018 718.75 730.518 718.75 725.666C718.75 720.396 719.857 715.716 722.064 711.62C724.27 707.525 727.505 704.387 731.76 702.201C735.007 700.521 739.044 699.681 743.876 699.681C750.153 699.681 755.055 701.006 758.574 703.651C762.118 706.271 764.396 709.907 765.407 714.554L755.264 716.451C754.549 713.969 753.204 712.013 751.223 710.584C749.271 709.138 746.818 708.411 743.876 708.411C739.412 708.411 735.855 709.828 733.21 712.657C730.589 715.486 729.277 719.686 729.277 725.252C729.277 731.257 730.61 735.766 733.281 738.779C735.947 741.767 739.445 743.263 743.771 743.263C745.911 743.263 748.051 742.85 750.19 742.022C752.351 741.17 754.203 740.146 755.745 738.951V732.532H744.047ZM775.208 751.132V700.546H785.422V751.132H775.208ZM814.895 700.546H835.118C839.122 700.546 842.102 700.718 844.058 701.06C846.035 701.386 847.794 702.076 849.336 703.133C850.899 704.19 852.199 705.607 853.236 707.379C854.272 709.126 854.79 711.094 854.79 713.279C854.79 715.649 854.147 717.822 852.855 719.799C851.593 721.779 849.867 723.263 847.681 724.249C850.761 725.148 853.131 726.677 854.79 728.842C856.445 731.002 857.273 733.543 857.273 736.464C857.273 738.767 856.734 741.011 855.651 743.197C854.594 745.357 853.131 747.095 851.267 748.408C849.428 749.695 847.15 750.489 844.438 750.785C842.733 750.969 838.629 751.086 832.117 751.132H814.895V700.546ZM825.109 708.963V720.664H831.804C835.787 720.664 838.257 720.605 839.226 720.488C840.973 720.283 842.344 719.686 843.331 718.695C844.346 717.684 844.852 716.359 844.852 714.725C844.852 713.162 844.413 711.896 843.54 710.931C842.687 709.94 841.412 709.343 839.707 709.138C838.696 709.021 835.787 708.963 830.977 708.963H825.109ZM825.109 729.08V742.607H834.567C838.249 742.607 840.581 742.507 841.571 742.298C843.092 742.022 844.321 741.354 845.266 740.296C846.231 739.214 846.716 737.776 846.716 735.984C846.716 734.467 846.344 733.175 845.608 732.118C844.873 731.061 843.803 730.288 842.399 729.807C841.019 729.322 838.006 729.08 833.359 729.08H825.109ZM911.558 751.132H900.445L896.027 739.64H875.804L871.629 751.132H860.796L880.497 700.546H891.301L911.558 751.132ZM892.751 731.119L885.78 712.348L878.947 731.119H892.751ZM917.112 751.132V700.546H927.055L947.759 734.329V700.546H957.25V751.132H946.998L926.603 718.144V751.132H917.112ZM968.049 700.546H986.723C990.931 700.546 994.141 700.868 996.348 701.512C999.315 702.385 1001.86 703.94 1003.97 706.171C1006.09 708.403 1007.7 711.14 1008.81 714.383C1009.91 717.6 1010.47 721.583 1010.47 726.322C1010.47 730.484 1009.95 734.074 1008.91 737.087C1007.64 740.769 1005.84 743.748 1003.49 746.026C1001.72 747.752 999.328 749.097 996.314 750.063C994.062 750.777 991.044 751.132 987.274 751.132H968.049V700.546ZM978.264 709.101V742.607H985.891C988.745 742.607 990.806 742.449 992.068 742.127C993.727 741.713 995.094 741.011 996.176 740.021C997.28 739.03 998.178 737.409 998.868 735.156C999.557 732.879 999.904 729.782 999.904 725.871C999.904 721.963 999.557 718.959 998.868 716.865C998.178 714.771 997.213 713.142 995.967 711.967C994.726 710.793 993.15 709.999 991.24 709.585C989.815 709.264 987.019 709.101 982.857 709.101H978.264ZM1019.09 700.546H1029.31V727.943C1029.31 732.289 1029.43 735.11 1029.69 736.397C1030.12 738.466 1031.16 740.133 1032.79 741.4C1034.45 742.645 1036.7 743.263 1039.56 743.263C1042.45 743.263 1044.64 742.678 1046.11 741.504C1047.59 740.309 1048.47 738.846 1048.77 737.12C1049.07 735.394 1049.22 732.532 1049.22 728.528V700.546H1059.43V727.116C1059.43 733.188 1059.16 737.48 1058.61 739.987C1058.05 742.494 1057.03 744.609 1055.54 746.335C1054.06 748.061 1052.08 749.44 1049.6 750.476C1047.11 751.488 1043.87 751.993 1039.87 751.993C1035.04 751.993 1031.37 751.442 1028.86 750.338C1026.37 749.21 1024.41 747.76 1022.96 745.988C1021.51 744.195 1020.55 742.319 1020.09 740.367C1019.43 737.467 1019.09 733.188 1019.09 727.53V700.546ZM1070.34 751.132V700.546H1080.28L1100.99 734.329V700.546H1110.47V751.132H1100.22L1079.83 718.144V751.132H1070.34ZM1144.85 732.532V724.011H1166.86V744.162C1164.72 746.23 1161.62 748.061 1157.54 749.649C1153.49 751.212 1149.39 751.993 1145.22 751.993C1139.93 751.993 1135.32 750.89 1131.39 748.684C1127.45 746.452 1124.5 743.276 1122.52 739.16C1120.54 735.018 1119.55 730.518 1119.55 725.666C1119.55 720.396 1120.65 715.716 1122.86 711.62C1125.07 707.525 1128.31 704.387 1132.56 702.201C1135.8 700.521 1139.84 699.681 1144.67 699.681C1150.95 699.681 1155.86 701.006 1159.37 703.651C1162.92 706.271 1165.2 709.907 1166.21 714.554L1156.06 716.451C1155.35 713.969 1154 712.013 1152.02 710.584C1150.07 709.138 1147.62 708.411 1144.67 708.411C1140.21 708.411 1136.66 709.828 1134.01 712.657C1131.39 715.486 1130.08 719.686 1130.08 725.252C1130.08 731.257 1131.41 735.766 1134.08 738.779C1136.75 741.767 1140.25 743.263 1144.57 743.263C1146.71 743.263 1148.85 742.85 1150.99 742.022C1153.15 741.17 1155 740.146 1156.54 738.951V732.532H1144.85Z" fill="black"/>
<path d="M33.2692 44.0507H88.0505V51.2995H65.555V79.7715H88.0505V87.0203H33.2692V79.7715H59.0904V51.2995H33.2692V44.0507ZM33.2692 100.359H88.0505V107.608H33.2692V100.359ZM33.2692 120.2H88.0505V131.111L49.2628 144.076C45.6506 145.272 42.9474 146.144 41.1538 146.691C43.1468 147.314 46.0739 148.286 49.9352 149.606L88.0505 162.721V172.473H33.2692V165.486H79.1197L33.2692 149.569V143.03L79.9042 127.187H33.2692V120.2ZM33.2692 184.168H88.0505V204.831C88.0505 208.468 87.8762 211.245 87.5273 213.163C87.0788 215.853 86.2196 218.108 84.9491 219.926C83.7032 221.745 81.9471 223.202 79.6802 224.298C77.4129 225.419 74.9221 225.979 72.2063 225.979C67.5481 225.979 63.5995 224.497 60.3609 221.533C57.1474 218.569 55.5405 213.213 55.5405 205.466V191.417H33.2692V184.168ZM62.0051 191.417V205.578C62.0051 210.261 62.8769 213.587 64.6209 215.555C66.3645 217.523 68.8186 218.506 71.9823 218.506C74.2743 218.506 76.2298 217.921 77.8492 216.75C79.4934 215.604 80.5771 214.085 81.0999 212.192C81.4238 210.971 81.586 208.717 81.586 205.429V191.417H62.0051ZM88.0505 271.153V278.402H56.3998C50.8944 278.402 46.5224 277.779 43.2838 276.534C40.0452 275.288 37.4045 273.034 35.3617 269.771C33.3439 266.532 32.335 262.273 32.335 256.992C32.335 251.861 33.2193 247.663 34.9881 244.4C36.7568 241.137 39.3103 238.808 42.6486 237.413C46.0117 236.018 50.5955 235.321 56.3998 235.321H88.0505V242.569H56.4374C51.6792 242.569 48.1665 243.005 45.8997 243.877C43.6575 244.774 41.926 246.293 40.7054 248.435C39.4847 250.603 38.8743 253.243 38.8743 256.357C38.8743 261.688 40.0826 265.486 42.499 267.753C44.9154 270.02 49.5616 271.153 56.4374 271.153H88.0505ZM33.2692 290.433H88.0505V297.869L45.04 326.64H88.0505V333.589H33.2692V326.154L76.3171 297.383H33.2692V290.433ZM33.2692 339.792L88.0505 360.828V368.638L33.2692 391.057V382.799L49.8604 376.409V353.505L33.2692 347.489V339.792ZM55.7645 355.597V374.167L70.9358 368.451C75.5448 366.707 79.3312 365.412 82.296 364.565C78.7833 363.868 75.2957 362.883 71.8327 361.613L55.7645 355.597ZM33.2692 396.773H88.0505V404.209L45.04 432.981H88.0505V439.93H33.2692V432.496L76.3171 403.723H33.2692V396.773Z" fill="black"/>
<path d="M653.506 661.678V606.9H660.757V661.678H653.506ZM673.5 661.678V606.9H680.935L709.71 649.91V606.9H716.66V661.678H709.225L680.45 618.635V661.678H673.5ZM729.252 661.678V606.9H766.21V613.365H736.503V630.332H762.21V636.792H736.503V661.678H729.252ZM773.457 634.999C773.457 625.91 775.902 618.798 780.783 613.666C785.664 608.509 791.967 605.931 799.69 605.931C804.747 605.931 809.307 607.138 813.369 609.554C817.427 611.969 820.516 615.346 822.635 619.679C824.779 623.992 825.849 628.886 825.849 634.364C825.849 639.918 824.729 644.891 822.484 649.275C820.244 653.658 817.068 656.985 812.955 659.25C808.847 661.494 804.413 662.614 799.653 662.614C794.495 662.614 789.89 661.369 785.827 658.878C781.765 656.387 778.689 652.986 776.6 648.677C774.506 644.364 773.457 639.809 773.457 634.999ZM780.933 635.112C780.933 641.715 782.701 646.918 786.237 650.729C789.802 654.515 794.261 656.412 799.615 656.412C805.073 656.412 809.558 654.494 813.068 650.658C816.608 646.822 818.376 641.376 818.376 634.327C818.376 629.868 817.615 625.981 816.094 622.672C814.602 619.333 812.395 616.754 809.482 614.936C806.59 613.093 803.339 612.17 799.728 612.17C794.596 612.17 790.174 613.938 786.463 617.477C782.777 620.987 780.933 626.867 780.933 635.112ZM835.34 661.678V606.9H859.63C864.511 606.9 868.223 607.402 870.764 608.396C873.305 609.37 875.336 611.1 876.857 613.591C878.374 616.081 879.135 618.835 879.135 621.848C879.135 625.735 877.877 629.011 875.361 631.673C872.845 634.339 868.958 636.036 863.701 636.755C865.619 637.678 867.077 638.589 868.076 639.483C870.191 641.427 872.197 643.855 874.09 646.771L883.619 661.678H874.5L867.253 650.282C865.134 646.993 863.391 644.477 862.021 642.735C860.65 640.992 859.417 639.772 858.322 639.074C857.252 638.376 856.153 637.891 855.033 637.615C854.209 637.44 852.864 637.356 850.995 637.356H842.591V661.678H835.34ZM842.591 631.075H858.171C861.486 631.075 864.077 630.741 865.945 630.068C867.813 629.37 869.234 628.275 870.204 626.779C871.177 625.262 871.662 623.616 871.662 621.848C871.662 619.257 870.713 617.126 868.82 615.459C866.952 613.791 863.989 612.955 859.927 612.955H842.591V631.075ZM890.31 661.678V606.9H901.218L914.187 645.685C915.382 649.3 916.255 651.999 916.803 653.796C917.426 651.803 918.395 648.874 919.716 645.012L932.835 606.9H942.585V661.678H935.597V615.831L919.678 661.678H913.142L897.298 615.049V661.678H890.31ZM948.265 661.678L969.303 606.9H977.115L999.537 661.678H991.278L984.888 645.087H961.981L955.963 661.678H948.265ZM964.071 639.187H982.644L976.927 624.017C975.184 619.408 973.888 615.622 973.04 612.655C972.342 616.169 971.36 619.654 970.089 623.119L964.071 639.187ZM1013.58 661.678V613.365H995.537V606.9H1038.96V613.365H1020.83V661.678H1013.58ZM1047.67 661.678V606.9H1054.91V661.678H1047.67ZM1067.43 661.678V606.9H1074.68V634.068L1101.88 606.9H1111.71L1088.73 629.099L1112.72 661.678H1103.15L1083.65 633.955L1074.68 642.697V661.678H1067.43ZM1112.76 661.678L1133.8 606.9H1141.61L1164.03 661.678H1155.77L1149.38 645.087H1126.47L1120.46 661.678H1112.76ZM1128.56 639.187H1147.14L1141.42 624.017C1139.68 619.408 1138.38 615.622 1137.53 612.655C1136.84 616.169 1135.85 619.654 1134.58 623.119L1128.56 639.187Z" fill="black"/>
<path d="M226.079 661.678L247.116 606.9H254.926L277.347 661.678H269.089L262.699 645.087H239.793L233.776 661.678H226.079ZM241.885 639.187H260.457L254.739 624.017C252.996 619.408 251.7 615.622 250.853 612.655C250.156 616.169 249.172 619.654 247.901 623.119L241.885 639.187ZM280.673 644.08L287.511 643.483C287.835 646.224 288.582 648.477 289.753 650.244C290.949 651.987 292.793 653.408 295.284 654.507C297.775 655.577 300.578 656.111 303.692 656.111C306.457 656.111 308.898 655.702 311.016 654.879C313.133 654.055 314.703 652.935 315.724 651.515C316.77 650.069 317.293 648.502 317.293 646.809C317.293 645.087 316.795 643.596 315.799 642.325C314.802 641.03 313.158 639.943 310.866 639.074C309.397 638.501 306.145 637.615 301.113 636.42C296.081 635.2 292.556 634.055 290.538 632.981C287.922 631.614 285.967 629.918 284.671 627.899C283.401 625.86 282.766 623.578 282.766 621.063C282.766 618.3 283.55 615.722 285.12 613.327C286.689 610.912 288.981 609.082 291.996 607.836C295.01 606.591 298.36 605.968 302.047 605.968C306.108 605.968 309.683 606.629 312.772 607.949C315.886 609.245 318.278 611.163 319.947 613.703C321.616 616.244 322.512 619.119 322.637 622.333L315.687 622.855C315.313 619.395 314.043 616.779 311.875 615.012C309.733 613.24 306.556 612.358 302.346 612.358C297.962 612.358 294.761 613.169 292.743 614.786C290.75 616.382 289.753 618.309 289.753 620.578C289.753 622.546 290.463 624.163 291.883 625.434C293.279 626.704 296.915 628.012 302.795 629.358C308.699 630.678 312.747 631.836 314.939 632.835C318.128 634.302 320.482 636.169 322.002 638.439C323.521 640.679 324.281 643.27 324.281 646.212C324.281 649.124 323.447 651.878 321.778 654.469C320.108 657.035 317.705 659.037 314.565 660.483C311.451 661.903 307.939 662.614 304.028 662.614C299.07 662.614 294.91 661.891 291.547 660.445C288.209 658.999 285.581 656.834 283.662 653.943C281.769 651.03 280.772 647.741 280.673 644.08ZM335.417 661.678V606.9H342.666V661.678H335.417ZM353.017 644.08L359.855 643.483C360.179 646.224 360.927 648.477 362.098 650.244C363.293 651.987 365.137 653.408 367.628 654.507C370.119 655.577 372.922 656.111 376.036 656.111C378.801 656.111 381.243 655.702 383.36 654.879C385.477 654.055 387.047 652.935 388.068 651.515C389.115 650.069 389.638 648.502 389.638 646.809C389.638 645.087 389.139 643.596 388.143 642.325C387.147 641.03 385.503 639.943 383.211 639.074C381.741 638.501 378.49 637.615 373.457 636.42C368.425 635.2 364.9 634.055 362.882 632.981C360.267 631.614 358.311 629.918 357.016 627.899C355.745 625.86 355.11 623.578 355.11 621.063C355.11 618.3 355.895 615.722 357.464 613.327C359.033 610.912 361.325 609.082 364.34 607.836C367.354 606.591 370.705 605.968 374.391 605.968C378.452 605.968 382.027 606.629 385.116 607.949C388.23 609.245 390.622 611.163 392.291 613.703C393.96 616.244 394.857 619.119 394.981 622.333L388.031 622.855C387.657 619.395 386.387 616.779 384.22 615.012C382.077 613.24 378.901 612.358 374.691 612.358C370.306 612.358 367.105 613.169 365.087 614.786C363.094 616.382 362.098 618.309 362.098 620.578C362.098 622.546 362.808 624.163 364.227 625.434C365.623 626.704 369.26 628.012 375.139 629.358C381.043 630.678 385.091 631.836 387.283 632.835C390.472 634.302 392.826 636.169 394.346 638.439C395.866 640.679 396.625 643.27 396.625 646.212C396.625 649.124 395.791 651.878 394.122 654.469C392.453 657.035 390.049 659.037 386.91 660.483C383.796 661.903 380.283 662.614 376.372 662.614C371.415 662.614 367.254 661.891 363.891 660.445C360.553 658.999 357.925 656.834 356.007 653.943C354.113 651.03 353.117 647.741 353.017 644.08ZM416.094 661.678L401.558 606.9H408.994L417.327 642.81C418.224 646.571 418.997 650.307 419.645 654.018C421.041 648.163 421.86 644.791 422.11 643.892L432.538 606.9H441.281L449.125 634.628C451.094 641.502 452.515 647.967 453.388 654.018C454.086 650.558 454.993 646.583 456.113 642.099L464.71 606.9H471.995L456.974 661.678H449.986L438.439 619.943C437.469 616.453 436.897 614.314 436.721 613.515C436.149 616.031 435.614 618.175 435.116 619.943L423.494 661.678H416.094ZM469.943 661.678L490.981 606.9H498.788L521.21 661.678H512.952L506.562 645.087H483.655L477.641 661.678H469.943ZM485.749 639.187H504.322L498.604 624.017C496.857 619.408 495.562 615.622 494.718 612.655C494.02 616.169 493.033 619.654 491.763 623.119L485.749 639.187Z" fill="black"/>
<path d="M72.2607 573.69L112.586 536.614L119.972 544.646L100.196 580.439C98.3463 583.765 96.9467 586.235 95.9971 587.853C97.8858 586.962 100.698 585.696 104.434 584.058L141.369 567.915L147.971 575.094L107.645 612.17L102.915 607.026L136.667 575.993L92.1409 595.308L87.7146 590.494L111.32 547.271L76.9905 578.834L72.2607 573.69Z" fill="black"/>
<path d="M111.202 617.644L157.763 581.931L164.422 586.014L154.916 644.431L147.874 640.114L151.095 622.634L131.564 610.665L117.765 621.669L111.202 617.644ZM136.433 606.725L152.268 616.428L155.321 600.506C156.242 595.667 157.116 591.76 157.942 588.793C155.512 591.421 152.851 593.879 149.958 596.169L136.433 606.725Z" fill="black"/>
<path d="M164.263 648.167L179.006 595.412L185.988 597.364L179.934 619.027L207.358 626.687L213.412 605.024L220.394 606.975L205.651 659.73L198.669 657.783L205.618 632.914L178.194 625.254L171.245 650.119L164.263 648.167Z" fill="black"/>
</g>
</g>
<defs>
<clipPath id="clip0_111_106">
<rect width="1212" height="794" fill="white"/>
</clipPath>
</defs>
</svg>
